<?xml version="1.0" standalone="no"?>
<!DOCTYPE svg PUBLIC "-//W3C//DTD SVG 20010904//EN"
 "http://www.w3.org/TR/2001/REC-SVG-20010904/DTD/svg10.dtd">
<svg version="1.0" xmlns="http://www.w3.org/2000/svg"
 width="260.000000pt" height="260.000000pt" viewBox="0 0 260.000000 260.000000"
 preserveAspectRatio="xMidYMid meet">
<metadata>
Created by potrace 1.11, written by Peter Selinger 2001-2013
</metadata>
<g transform="translate(0.000000,260.000000) scale(0.100000,-0.100000)"
fill="#000000" stroke="none">
<path d="M504 2318 l-19 -23 23 19 c21 18 27 26 19 26 -2 0 -12 -10 -23 -22z"/>
<path d="M1180 2323 c-22 -8 -60 -45 -60 -58 0 -7 -25 -17 -55 -24 -30 -7 -61
-18 -68 -25 -7 -7 -19 -11 -27 -8 -8 3 -12 2 -9 -2 4 -4 19 -9 35 -12 16 -3
30 -9 32 -14 2 -5 14 -6 27 -4 19 3 23 1 19 -11 -4 -8 -1 -15 5 -15 6 0 11 6
11 13 0 9 2 9 9 -1 4 -7 12 -12 17 -11 27 5 36 -1 24 -16 -7 -8 -16 -13 -20
-10 -5 3 -12 0 -16 -6 -4 -8 -3 -9 4 -5 7 4 12 3 12 -2 0 -11 -30 -26 -45 -23
-5 2 -7 -1 -3 -5 10 -10 -29 -37 -42 -29 -5 3 -7 0 -5 -7 6 -14 -37 -58 -56
-58 -5 0 -8 -4 -5 -9 3 -5 -11 -29 -32 -54 -118 -144 -237 -455 -212 -557 8
-34 8 -34 7 12 -1 26 2 50 5 54 15 14 28 -10 30 -54 1 -46 1 -46 5 -8 3 22 -1
50 -8 62 -10 19 -8 27 11 53 12 17 26 29 31 26 5 -4 13 4 18 17 6 13 21 40 34
61 l24 39 1 -37 c2 -51 12 -58 12 -9 0 21 7 48 15 58 18 24 20 40 3 30 -7 -4
-8 -3 -4 5 4 6 11 9 16 6 5 -3 16 10 25 29 9 19 23 40 31 47 8 6 14 17 14 25
0 7 8 15 19 19 10 3 27 21 37 40 10 19 22 35 26 35 3 0 9 8 11 18 4 13 5 12 6
-5 1 -28 16 -37 38 -23 16 9 15 10 -4 5 -21 -6 -23 -3 -22 27 0 30 1 31 9 11
6 -15 15 -21 25 -17 8 3 15 8 15 11 0 3 -7 3 -15 -1 -9 -3 -15 0 -15 9 0 19
14 19 29 1 8 -9 8 -16 2 -20 -5 -4 -8 -15 -6 -26 2 -11 -1 -22 -6 -25 -5 -4
-7 -10 -4 -15 3 -5 0 -12 -6 -16 -8 -5 -9 -3 -4 6 5 9 4 11 -4 6 -9 -6 -9 -11
-1 -21 8 -10 8 -15 -1 -21 -8 -5 -9 -3 -4 6 5 9 4 11 -3 6 -9 -5 -8 -13 3 -30
8 -12 12 -26 8 -30 -5 -4 -9 -12 -9 -17 -1 -5 -3 -11 -4 -14 -1 -3 -3 -13 -4
-22 -1 -10 -5 -23 -9 -30 -4 -6 -3 -15 3 -18 8 -5 7 -11 -1 -21 -6 -8 -8 -14
-4 -14 4 0 2 -7 -5 -15 -7 -8 -9 -15 -5 -15 4 0 2 -7 -5 -15 -7 -8 -9 -15 -5
-15 4 0 2 -7 -5 -15 -7 -8 -9 -15 -5 -15 4 0 2 -7 -5 -15 -7 -8 -9 -15 -5 -15
4 0 2 -7 -5 -15 -7 -8 -9 -15 -5 -15 5 0 0 -9 -10 -20 -10 -11 -14 -20 -10
-20 5 0 4 -5 -3 -12 -9 -9 -7 -15 6 -25 9 -7 12 -12 5 -11 -6 2 -11 -1 -11 -7
0 -5 5 -9 11 -7 6 2 5 -4 -3 -12 -7 -9 -9 -16 -5 -16 4 0 2 -6 -4 -13 -6 -8
-8 -16 -6 -19 3 -3 6 -87 6 -187 -1 -120 3 -181 10 -181 5 0 8 4 5 9 -4 5 0
12 6 14 10 4 10 6 1 6 -7 1 -10 8 -6 17 5 13 8 13 15 2 8 -10 9 -9 5 4 -3 9
-1 19 6 22 7 3 2 3 -10 0 -18 -4 -23 -1 -23 13 0 11 5 24 11 30 8 8 8 17 0 31
-16 30 -15 47 2 33 11 -8 19 -5 34 12 11 12 24 29 28 37 8 13 7 13 -8 1 -14
-11 -20 -11 -32 -1 -23 19 -20 43 4 30 16 -8 23 -6 35 12 21 29 20 35 -4 41
-12 3 -24 -1 -30 -11 -7 -12 -8 -3 -4 28 4 25 10 52 15 60 6 10 7 2 3 -22 -6
-36 -5 -38 20 -38 15 0 25 4 21 9 -3 5 -1 12 5 16 14 9 13 26 -2 22 -6 -1 -13
7 -15 18 -3 15 -2 17 5 6 8 -11 13 -8 26 15 8 16 15 25 16 19 0 -5 5 -3 10 5
15 24 12 33 -6 16 -21 -22 -34 -11 -33 27 1 24 3 26 6 10 4 -19 8 -21 22 -13
10 5 22 6 26 2 5 -4 5 1 2 11 -4 9 -2 17 3 17 6 0 10 5 10 11 0 5 -5 7 -10 4
-6 -4 -17 -1 -25 5 -12 10 -15 10 -15 0 0 -8 -3 -11 -6 -7 -7 7 9 38 22 40 5
1 9 7 9 12 1 24 17 55 26 49 6 -4 4 -13 -6 -24 -10 -11 -12 -20 -6 -24 13 -8
34 31 27 50 -3 8 -2 14 3 14 5 0 11 9 14 20 3 11 1 18 -3 15 -20 -12 -20 18 0
37 12 12 19 26 15 36 -3 8 0 19 7 23 7 5 12 25 11 49 -1 23 2 38 8 35 5 -4 10
2 11 12 0 10 2 23 3 28 2 6 4 15 5 20 1 6 6 1 11 -10 6 -15 8 -6 6 33 -2 51
-1 53 23 50 22 -3 26 -10 38 -68 7 -36 15 -72 19 -80 7 -17 9 -28 11 -53 1
-10 6 -16 10 -13 7 4 10 -4 15 -59 1 -14 5 -25 9 -25 3 0 5 -15 3 -32 -3 -24
-2 -29 5 -18 9 13 11 13 20 0 5 -8 8 -21 5 -28 -3 -8 4 -33 14 -57 11 -24 15
-45 10 -47 -10 -3 26 -78 45 -91 7 -6 4 -7 -6 -3 -12 3 -18 0 -18 -9 0 -8 4
-15 10 -15 5 0 16 -14 25 -30 16 -31 16 -64 1 -88 -4 -7 -5 -16 -2 -19 3 -4 6
-1 6 5 0 7 5 12 10 12 7 0 7 -6 0 -19 -15 -29 -12 -37 6 -15 8 10 13 13 9 7
-3 -7 -1 -13 5 -13 8 0 10 -9 6 -25 -4 -17 0 -31 14 -45 19 -19 29 -77 12 -66
-5 3 -9 -1 -9 -8 0 -9 7 -12 16 -8 13 5 14 3 3 -10 -9 -11 -10 -22 -2 -39 10
-22 10 -22 5 6 -4 25 -3 27 6 12 6 -10 9 -27 6 -38 -3 -10 -1 -19 4 -19 12 0
11 169 -1 284 -11 94 -51 305 -66 341 -4 11 32 -21 82 -71 49 -50 98 -96 109
-102 19 -9 21 -7 21 22 0 21 -5 32 -16 33 -41 4 -54 10 -49 26 8 26 5 38 -7
33 -8 -3 -12 -2 -9 3 3 5 1 13 -5 16 -8 5 -7 12 2 23 11 13 10 15 -5 9 -10 -4
-16 -3 -12 2 3 5 1 12 -5 16 -6 4 -8 11 -4 16 3 5 9 7 14 4 5 -3 7 4 5 15 -3
17 0 20 18 15 20 -5 19 -4 -3 9 -15 10 -19 15 -10 16 13 0 13 1 0 10 -8 5 -19
10 -25 10 -5 0 -3 -5 5 -10 13 -9 13 -10 0 -10 -13 0 -13 -1 0 -10 13 -9 13
-10 0 -10 -13 0 -13 -1 0 -10 12 -7 10 -9 -6 -8 -14 1 -20 8 -19 18 2 8 4 15
5 15 1 0 3 8 5 18 3 14 -1 17 -13 12 -9 -3 -13 -3 -9 1 4 4 2 13 -4 20 -7 8
-6 14 2 20 8 4 9 3 5 -4 -5 -8 -2 -10 9 -6 20 8 12 16 -17 18 -17 1 -22 8 -23
28 -1 16 2 25 8 21 6 -3 7 -1 3 5 -4 7 5 9 30 5 43 -7 54 6 52 57 l-1 35 -6
-40 c-6 -39 -7 -40 -46 -40 -22 -1 -45 -4 -51 -8 -8 -4 -11 3 -9 23 1 16 -3
31 -10 34 -8 3 -12 13 -11 23 2 10 -6 24 -16 31 -15 11 -16 17 -7 28 8 10 8
14 0 14 -6 0 -11 4 -11 9 0 4 11 6 25 3 15 -2 25 0 25 7 0 6 11 11 25 11 23 0
25 -4 25 -45 0 -31 -5 -47 -17 -54 -17 -10 -17 -10 -1 -11 17 0 24 16 30 69
l3 24 30 -26 c23 -21 25 -26 10 -21 -15 4 -14 2 4 -9 21 -13 25 -22 25 -63 -1
-43 0 -44 3 -9 2 22 8 44 13 49 6 6 7 -3 4 -20 -3 -21 -2 -25 5 -14 8 12 13
11 33 -5 41 -36 48 -43 48 -52 0 -4 14 -17 30 -28 16 -11 30 -27 30 -35 0 -13
1 -13 10 0 8 12 10 10 10 -10 0 -20 2 -22 10 -10 9 15 11 14 14 -12 1 -7 8
-12 16 -10 8 2 12 0 8 -3 -4 -4 4 -16 17 -27 14 -11 23 -24 20 -29 -4 -5 -1
-9 5 -9 15 0 7 33 -25 113 -37 92 -84 163 -167 250 -65 68 -75 83 -65 96 10
14 10 14 -5 3 -17 -14 -43 -8 -34 7 3 4 -1 8 -8 8 -17 0 -156 92 -156 103 0 5
9 7 20 5 11 -2 20 1 20 6 0 6 5 7 10 4 6 -3 10 -2 10 4 0 6 7 8 15 5 8 -4 15
-2 15 4 0 5 6 10 13 9 6 0 23 1 37 2 22 2 20 5 -17 21 -23 10 -62 22 -87 25
-26 4 -46 13 -46 19 0 7 -12 23 -26 37 -21 20 -36 24 -84 24 -42 0 -64 -5 -76
-17 -16 -15 -19 -15 -53 3 -34 18 -80 23 -111 12z m269 -37 c9 -11 5 -15 -24
-18 -23 -3 -35 0 -35 8 0 24 42 31 59 10z m-189 -8 c0 -8 -14 -13 -35 -13 -34
0 -42 5 -28 18 12 12 63 7 63 -5z m-3 -34 c-3 -3 -12 -4 -19 -1 -8 3 -5 6 6 6
11 1 17 -2 13 -5z m170 0 c-3 -3 -12 -4 -19 -1 -8 3 -5 6 6 6 11 1 17 -2 13
-5z m54 -150 c5 -15 8 -29 5 -31 -6 -7 -36 28 -36 43 0 24 20 16 31 -12z
m-271 -14 c-6 -11 -13 -20 -16 -20 -2 0 0 9 6 20 6 11 13 20 16 20 2 0 0 -9
-6 -20z m558 -691 c-11 -7 -10 -9 1 -9 8 0 11 -3 8 -6 -9 -9 -38 16 -32 27 3
4 13 5 21 2 13 -5 13 -7 2 -14z"/>
<path d="M2105 2310 c10 -11 20 -20 23 -20 3 0 -3 9 -13 20 -10 11 -20 20 -23
20 -3 0 3 -9 13 -20z"/>
<path d="M444 2268 l-29 -33 33 29 c30 28 37 36 29 36 -2 0 -16 -15 -33 -32z"/>
<path d="M2210 2215 c35 -36 67 -65 69 -65 3 0 -24 29 -59 65 -35 36 -67 65
-69 65 -3 0 24 -29 59 -65z"/>
<path d="M324 2148 l-29 -33 33 29 c30 28 37 36 29 36 -2 0 -16 -15 -33 -32z"/>
<path d="M943 2163 c4 -3 1 -13 -6 -22 -11 -14 -10 -14 5 -2 16 12 16 31 1 31
-4 0 -3 -3 0 -7z"/>
<path d="M1700 2156 c0 -2 8 -10 18 -17 15 -13 16 -12 3 4 -13 16 -21 21 -21
13z"/>
<path d="M2305 2110 c10 -11 20 -20 23 -20 3 0 -3 9 -13 20 -10 11 -20 20 -23
20 -3 0 3 -9 13 -20z"/>
<path d="M274 2088 l-19 -23 23 19 c21 18 27 26 19 26 -2 0 -12 -10 -23 -22z"/>
<path d="M950 2057 c0 -2 6 -10 14 -16 11 -9 16 -9 22 1 4 7 4 10 -1 6 -4 -4
-14 -3 -22 3 -7 6 -13 9 -13 6z"/>
<path d="M1774 2028 l-19 -23 23 19 c21 18 27 26 19 26 -2 0 -12 -10 -23 -22z"/>
<path d="M870 2036 c0 -2 8 -10 18 -17 15 -13 16 -12 3 4 -13 16 -21 21 -21
13z"/>
<path d="M1600 1917 c0 -8 -8 -18 -17 -20 -17 -4 -17 -5 0 -6 18 -1 35 25 23
36 -3 4 -6 -1 -6 -10z"/>
<path d="M1621 1903 c-1 -21 -7 -33 -18 -36 -17 -4 -17 -5 0 -6 21 -1 30 18
24 51 -3 18 -5 16 -6 -9z"/>
<path d="M1557 1879 c7 -7 15 -10 18 -7 3 3 -2 9 -12 12 -14 6 -15 5 -6 -5z"/>
<path d="M1117 1849 c-9 -5 -22 -7 -27 -4 -6 3 -10 1 -10 -4 0 -16 23 -13 46
4 22 17 17 19 -9 4z"/>
<path d="M1658 1837 c-3 -19 -2 -25 4 -19 6 6 8 18 6 28 -3 14 -5 12 -10 -9z"/>
<path d="M1679 1818 c-3 -22 -1 -34 4 -29 5 5 7 21 5 37 -3 27 -4 26 -9 -8z"/>
<path d="M1061 1825 c-1 -21 14 -34 29 -25 13 8 13 10 -2 10 -9 0 -19 6 -21
13 -3 6 -6 8 -6 2z"/>
<path d="M1590 1820 c8 -5 22 -9 30 -9 10 0 8 3 -5 9 -27 12 -43 12 -25 0z"/>
<path d="M1041 1808 c-1 -23 9 -48 21 -48 7 0 7 4 0 13 -5 6 -12 21 -15 32 -3
15 -5 16 -6 3z"/>
<path d="M1340 1788 c0 -9 -6 -19 -12 -21 -10 -4 -10 -6 0 -6 14 -1 28 26 18
36 -3 4 -6 -1 -6 -9z"/>
<path d="M1610 1790 c8 -5 22 -9 30 -9 10 0 8 3 -5 9 -27 12 -43 12 -25 0z"/>
<path d="M996 1775 c-3 -8 -1 -15 4 -15 6 0 10 7 10 15 0 8 -2 15 -4 15 -2 0
-6 -7 -10 -15z"/>
<path d="M1741 1755 c-2 -37 -10 -51 -36 -58 -18 -4 -18 -5 2 -6 27 -1 46 30
40 67 -4 27 -4 27 -6 -3z"/>
<path d="M1086 1755 c-14 -11 -16 -15 -5 -15 10 -1 9 -5 -5 -15 -24 -18 -53
-19 -59 -2 -2 7 -3 5 -3 -3 1 -11 12 -14 36 -13 33 1 34 1 15 -13 -28 -21 -58
-14 -66 16 -6 20 -7 21 -8 5 -1 -35 14 -48 48 -42 38 8 39 2 4 -18 -23 -13
-24 -15 -5 -10 32 9 27 -2 -9 -20 -42 -22 -56 -14 -67 37 -6 24 -10 34 -11 22
-2 -34 20 -84 36 -84 8 0 23 5 35 11 11 6 22 8 25 6 6 -7 -51 -37 -71 -37 -8
0 -19 12 -24 28 -6 15 -11 20 -11 11 -1 -8 5 -24 13 -35 13 -17 18 -18 47 -7
43 16 49 9 10 -11 -36 -19 -67 -21 -74 -3 -4 9 -6 9 -6 -1 -1 -20 29 -26 62
-14 45 17 45 7 0 -17 -21 -11 -34 -20 -30 -21 5 0 17 5 29 11 11 6 22 8 25 6
3 -3 -14 -15 -38 -27 -34 -18 -47 -20 -61 -11 -12 7 -18 8 -18 1 0 -22 34 -22
79 1 65 33 67 34 54 18 -6 -8 -11 -18 -11 -24 0 -5 -6 -11 -13 -14 -7 -2 -9 1
-4 8 4 7 -11 3 -34 -8 -49 -26 -67 -26 -81 -3 -11 16 -11 16 -6 -1 3 -10 6
-21 6 -23 0 -9 47 -2 70 11 37 21 49 18 20 -6 l-25 -21 27 16 c34 20 44 20 28
1 -7 -8 -9 -15 -5 -15 4 0 2 -7 -5 -15 -7 -8 -9 -15 -5 -15 4 0 2 -7 -5 -15
-7 -8 -9 -15 -5 -15 4 0 2 -7 -5 -15 -7 -8 -17 -15 -22 -15 -6 0 -6 6 1 14 6
7 -10 3 -36 -10 -73 -38 -92 -32 -111 36 -6 19 -11 27 -11 17 -1 -10 6 -33 13
-52 17 -40 36 -44 93 -20 52 22 54 9 2 -15 -65 -29 -87 -26 -104 13 -8 17 -14
27 -15 20 0 -7 5 -24 12 -38 13 -29 41 -32 95 -10 49 21 54 11 6 -14 -21 -11
-34 -20 -30 -21 5 0 17 5 29 11 11 6 22 8 25 5 3 -3 -18 -17 -48 -31 -30 -14
-48 -25 -41 -25 7 0 27 7 43 16 17 8 33 13 36 10 8 -8 -98 -56 -124 -56 -20 0
-29 15 -57 100 -3 10 -5 9 -5 -5 0 -11 8 -39 19 -62 22 -50 41 -54 109 -23 24
11 46 18 49 15 7 -7 -100 -55 -124 -55 -28 0 -38 14 -58 75 -11 34 -15 39 -11
17 3 -19 12 -49 21 -68 20 -42 47 -44 119 -10 52 24 156 101 154 114 -1 4 0 9
1 12 7 20 7 39 -2 34 -5 -3 -7 -9 -4 -12 7 -7 -13 -32 -26 -32 -6 0 -5 7 2 15
7 8 9 15 5 15 -4 0 -2 7 5 15 7 8 9 15 5 15 -4 0 -2 7 5 15 7 8 9 15 5 15 -4
0 -2 7 5 15 7 8 9 15 5 15 -5 0 0 9 10 20 10 11 15 20 10 20 -4 0 -2 7 5 15 7
8 9 15 5 15 -4 0 -2 7 5 15 7 8 9 15 5 15 -4 0 -2 7 5 15 7 8 9 15 5 15 -4 0
-2 7 5 15 7 8 9 15 5 15 -4 0 -2 7 5 15 7 8 9 15 5 15 -4 0 -2 6 4 14 9 10 9
16 1 21 -8 5 -7 12 2 23 10 14 10 15 -2 5 -20 -18 -35 -16 -20 2 7 8 9 15 4
15 -5 1 2 10 15 20 14 12 18 20 10 20 -9 1 -7 6 5 15 11 8 14 15 7 15 -7 0 -9
5 -6 10 8 13 4 12 -19 -5z m-3 -122 c4 -3 2 -12 -4 -20 -6 -7 -8 -13 -5 -13 4
0 4 -6 -1 -12 -4 -7 -8 -16 -9 -20 -1 -5 -3 -10 -4 -13 -1 -3 -3 -9 -4 -15 0
-5 -4 -10 -8 -10 -29 0 -31 2 -14 15 14 11 16 15 5 15 -10 1 -9 5 5 15 11 8
14 15 7 15 -7 0 -9 5 -4 13 4 6 8 15 9 20 3 15 4 17 12 17 5 0 12 -3 15 -7z
m-103 -298 c-7 -8 -9 -15 -5 -15 4 0 2 -6 -4 -14 -14 -17 1 -31 22 -21 6 4 -6
-10 -28 -29 -22 -20 -44 -36 -50 -36 -5 1 -1 7 9 15 11 8 14 15 7 15 -7 0 -9
5 -6 10 4 6 13 9 20 8 8 -2 14 2 14 7 0 6 -8 9 -17 7 -14 -2 -14 0 2 13 14 11
16 15 5 15 -9 0 -5 8 11 20 30 24 37 25 20 5z"/>
<path d="M1763 1735 c0 -22 2 -30 4 -17 2 12 2 30 0 40 -3 9 -5 -1 -4 -23z"/>
<path d="M1030 1751 c0 -10 19 -25 25 -20 1 2 -3 10 -11 17 -8 7 -14 8 -14 3z"/>
<path d="M1301 1753 c-1 -17 21 -63 30 -63 4 0 9 7 12 14 4 10 1 13 -7 10 -9
-3 -18 6 -24 23 -6 15 -11 23 -11 16z"/>
<path d="M1783 1715 c0 -27 2 -38 4 -22 2 15 2 37 0 50 -2 12 -4 0 -4 -28z"/>
<path d="M1803 1700 c0 -30 2 -43 4 -27 2 15 2 39 0 55 -2 15 -4 2 -4 -28z"/>
<path d="M1653 1728 c15 -10 67 -10 67 0 0 4 -18 7 -40 7 -23 1 -34 -2 -27 -7z"/>
<path d="M971 1708 c-1 -35 15 -78 30 -78 8 0 8 5 -1 16 -8 8 -17 32 -21 52
-5 30 -7 32 -8 10z"/>
<path d="M1841 1717 c2 -1 13 -9 24 -17 19 -14 19 -14 6 3 -7 9 -18 17 -24 17
-6 0 -8 -1 -6 -3z"/>
<path d="M1352 1676 c-15 -41 -28 -46 -37 -15 -4 11 -9 18 -12 16 -7 -7 16
-47 27 -47 12 0 42 58 38 71 -2 6 -9 -6 -16 -25z"/>
<path d="M1736 1674 c-17 -12 -17 -14 -4 -14 9 0 20 5 23 11 11 17 2 18 -19 3z"/>
<path d="M1841 1674 c0 -11 3 -14 6 -6 3 7 2 16 -1 19 -3 4 -6 -2 -5 -13z"/>
<path d="M1862 1660 c0 -14 2 -19 5 -12 2 6 2 18 0 25 -3 6 -5 1 -5 -13z"/>
<path d="M1281 1654 c0 -11 3 -14 6 -6 3 7 2 16 -1 19 -3 4 -6 -2 -5 -13z"/>
<path d="M1660 1660 c8 -5 20 -10 25 -10 6 0 3 5 -5 10 -8 5 -19 10 -25 10 -5
0 -3 -5 5 -10z"/>
<path d="M1817 1633 c-7 -39 -9 -42 -45 -46 l-37 -4 38 -1 c32 -2 39 2 48 25
5 15 8 36 7 47 -2 13 -7 4 -11 -21z"/>
<path d="M1760 1645 c-11 -13 -10 -14 4 -9 9 3 16 10 16 15 0 13 -6 11 -20 -6z"/>
<path d="M1881 1644 c0 -11 3 -14 6 -6 3 7 2 16 -1 19 -3 4 -6 -2 -5 -13z"/>
<path d="M1708 1643 c7 -3 16 -2 19 1 4 3 -2 6 -13 5 -11 0 -14 -3 -6 -6z"/>
<path d="M1842 1625 c0 -16 2 -22 5 -12 2 9 2 23 0 30 -3 6 -5 -1 -5 -18z"/>
<path d="M1900 1642 c0 -5 7 -9 15 -9 8 0 12 4 9 9 -3 4 -9 8 -15 8 -5 0 -9
-4 -9 -8z"/>
<path d="M1790 1632 c0 -7 -17 -13 -37 -14 l-38 -1 34 -4 c33 -4 61 10 48 24
-4 3 -7 1 -7 -5z"/>
<path d="M1290 1624 c0 -7 9 -22 20 -35 l20 -24 20 24 c11 13 20 28 20 35 -1
6 -8 -1 -16 -16 -8 -16 -19 -28 -24 -28 -5 0 -16 12 -24 28 -8 15 -15 22 -16
16z"/>
<path d="M1862 1605 c0 -16 2 -22 5 -12 2 9 2 23 0 30 -3 6 -5 -1 -5 -18z"/>
<path d="M1381 1604 c0 -11 3 -14 6 -6 3 7 2 16 -1 19 -3 4 -6 -2 -5 -13z"/>
<path d="M921 1594 c0 -11 3 -14 6 -6 3 7 2 16 -1 19 -3 4 -6 -2 -5 -13z"/>
<path d="M1923 1555 c0 -33 2 -45 4 -27 2 18 2 45 0 60 -2 15 -4 0 -4 -33z"/>
<path d="M902 1580 c0 -14 2 -19 5 -12 2 6 2 18 0 25 -3 6 -5 1 -5 -13z"/>
<path d="M1901 1565 c0 -22 -8 -52 -15 -67 -8 -16 -11 -28 -6 -28 14 0 32 71
27 105 -3 26 -4 24 -6 -10z"/>
<path d="M1942 1580 c0 -14 2 -19 5 -12 2 6 2 18 0 25 -3 6 -5 1 -5 -13z"/>
<path d="M1281 1580 c-1 -20 36 -80 49 -80 11 0 50 58 50 75 0 6 -10 -7 -23
-28 -22 -36 -24 -37 -40 -20 -9 10 -20 30 -26 43 -5 14 -10 18 -10 10z"/>
<path d="M1827 1576 c-3 -8 -21 -16 -39 -19 -33 -4 -33 -4 5 -5 26 -1 39 3 44
13 3 9 3 18 0 21 -2 3 -7 -2 -10 -10z"/>
<path d="M1882 1570 c0 -14 2 -19 5 -12 2 6 2 18 0 25 -3 6 -5 1 -5 -13z"/>
<path d="M1391 1564 c0 -11 3 -14 6 -6 3 7 2 16 -1 19 -3 4 -6 -2 -5 -13z"/>
<path d="M1961 1564 c0 -11 3 -14 6 -6 3 7 2 16 -1 19 -3 4 -6 -2 -5 -13z"/>
<path d="M1848 1553 c-4 -14 -16 -23 -34 -26 -29 -4 -29 -4 -3 -6 29 -1 53 21
47 41 -3 7 -7 3 -10 -9z"/>
<path d="M2011 1554 c0 -11 3 -14 6 -6 3 7 2 16 -1 19 -3 4 -6 -2 -5 -13z"/>
<path d="M1701 1539 c15 -11 18 -18 10 -23 -15 -10 -4 -27 13 -20 15 6 16 -31
2 -56 -5 -8 -6 -12 -1 -8 4 4 17 3 28 -3 15 -9 18 -8 12 2 -6 9 -3 10 11 5 37
-16 59 -17 29 -2 l-30 15 40 -4 c40 -5 40 -5 -9 11 -32 10 -45 18 -37 23 8 6
2 12 -19 21 -19 8 -27 16 -20 20 8 5 7 9 -5 14 -9 3 -14 9 -11 14 2 4 -4 8
-15 8 -19 0 -19 -1 2 -17z m67 -78 c11 -6 10 -10 -4 -15 -9 -3 -19 -4 -22 -1
-3 3 1 5 9 5 11 0 11 2 -1 10 -8 5 -10 10 -5 10 6 0 16 -4 23 -9z"/>
<path d="M910 1543 c0 -13 27 -49 33 -43 3 3 -3 16 -14 29 -10 13 -19 19 -19
14z"/>
<path d="M1740 1540 c8 -5 20 -10 25 -10 6 0 3 5 -5 10 -8 5 -19 10 -25 10 -5
0 -3 -5 5 -10z"/>
<path d="M1943 1515 c0 -22 2 -30 4 -17 2 12 2 30 0 40 -3 9 -5 -1 -4 -23z"/>
<path d="M1868 1523 c-3 -12 -16 -23 -29 -26 -22 -4 -22 -4 -3 -6 24 -1 48 22
42 41 -3 7 -7 3 -10 -9z"/>
<path d="M1963 1495 c0 -27 2 -38 4 -22 2 15 2 37 0 50 -2 12 -4 0 -4 -28z"/>
<path d="M1401 1514 c0 -11 3 -14 6 -6 3 7 2 16 -1 19 -3 4 -6 -2 -5 -13z"/>
<path d="M1983 1480 c0 -30 2 -43 4 -27 2 15 2 39 0 55 -2 15 -4 2 -4 -28z"/>
<path d="M1760 1510 c8 -5 22 -9 30 -9 10 0 8 3 -5 9 -27 12 -43 12 -25 0z"/>
<path d="M2003 1460 c0 -36 2 -50 4 -32 2 17 2 47 0 65 -2 17 -4 3 -4 -33z"/>
<path d="M2023 1450 c0 -41 2 -58 4 -37 2 20 2 54 0 75 -2 20 -4 3 -4 -38z"/>
<path d="M787 1503 c-4 -3 -7 -11 -7 -17 0 -6 5 -5 12 2 6 6 9 14 7 17 -3 3
-9 2 -12 -2z"/>
<path d="M1280 1503 c0 -7 11 -25 25 -40 l25 -28 25 28 c14 15 25 33 25 40 0
7 -9 -3 -20 -20 -11 -18 -24 -33 -30 -33 -6 0 -19 15 -30 33 -11 17 -20 27
-20 20z"/>
<path d="M851 1484 c0 -11 3 -14 6 -6 3 7 2 16 -1 19 -3 4 -6 -2 -5 -13z"/>
<path d="M1261 1490 c0 -8 4 -22 9 -30 12 -18 12 -2 0 25 -6 13 -9 15 -9 5z"/>
<path d="M1215 1480 c3 -5 8 -10 11 -10 2 0 4 5 4 10 0 6 -5 10 -11 10 -5 0
-7 -4 -4 -10z"/>
<path d="M1382 1463 c-5 -16 -19 -39 -31 -53 l-21 -25 -25 28 c-29 32 -34 23
-6 -10 11 -13 25 -23 33 -23 14 0 52 53 63 88 9 32 -1 27 -13 -5z"/>
<path d="M1910 1477 c0 -9 -8 -21 -17 -26 -16 -9 -17 -10 -1 -11 17 0 35 36
24 47 -3 4 -6 -1 -6 -10z"/>
<path d="M831 1464 c0 -11 3 -14 6 -6 3 7 2 16 -1 19 -3 4 -6 -2 -5 -13z"/>
<path d="M1798 1473 c6 -2 18 -2 25 0 6 3 1 5 -13 5 -14 0 -19 -2 -12 -5z"/>
<path d="M1206 1457 c3 -10 9 -15 12 -12 3 3 0 11 -7 18 -10 9 -11 8 -5 -6z"/>
<path d="M1927 1448 c-6 -23 -13 -27 -50 -31 l-42 -4 42 -1 c34 -2 45 2 53 19
6 11 10 25 7 32 -2 7 -7 0 -10 -15z"/>
<path d="M861 1457 c-3 -37 44 -59 79 -37 10 7 4 8 -21 4 -30 -5 -37 -3 -46
18 -7 12 -12 19 -12 15z"/>
<path d="M1375 1385 c-17 -33 -37 -60 -45 -60 -8 0 -27 23 -42 50 -31 57 -38
54 -9 -4 27 -53 46 -67 67 -50 18 15 67 107 62 118 -2 4 -16 -20 -33 -54z"/>
<path d="M840 1429 c0 -9 8 -27 18 -38 14 -19 21 -20 42 -11 25 10 25 10 -3 5
-24 -5 -30 -1 -42 27 -8 18 -14 26 -15 17z"/>
<path d="M1947 1418 c-6 -23 -13 -27 -50 -31 l-42 -4 42 -1 c34 -2 45 2 53 19
6 11 10 25 7 32 -2 7 -7 0 -10 -15z"/>
<path d="M821 1412 c-1 -25 30 -72 47 -71 15 1 15 2 0 6 -9 2 -23 21 -32 41
-8 20 -15 31 -15 24z"/>
<path d="M1971 1404 c0 -11 3 -14 6 -6 3 7 2 16 -1 19 -3 4 -6 -2 -5 -13z"/>
<path d="M1240 1400 c0 -24 45 -113 69 -134 21 -19 21 -19 42 0 22 20 63 93
56 100 -2 2 -12 -14 -22 -36 -10 -21 -26 -47 -37 -57 -18 -16 -20 -16 -39 3
-11 11 -31 47 -44 80 -14 32 -25 52 -25 44z"/>
<path d="M1810 1400 c8 -5 22 -9 30 -9 10 0 8 3 -5 9 -27 12 -43 12 -25 0z"/>
<path d="M782 1380 c0 -14 2 -19 5 -12 2 6 2 18 0 25 -3 6 -5 1 -5 -13z"/>
<path d="M1983 1361 c-8 -23 -18 -30 -44 -34 l-34 -4 32 -1 c25 -2 37 4 49 23
9 13 14 29 12 35 -2 6 -8 -3 -15 -19z"/>
<path d="M742 1360 c0 -14 2 -19 5 -12 2 6 2 18 0 25 -3 6 -5 1 -5 -13z"/>
<path d="M930 1370 c-9 -6 -10 -10 -3 -10 6 0 15 5 18 10 8 12 4 12 -15 0z"/>
<path d="M1954 1371 c-5 -5 -22 -11 -39 -14 l-30 -4 30 -1 c30 -2 64 12 54 22
-3 3 -10 2 -15 -3z"/>
<path d="M2011 1354 c0 -11 3 -14 6 -6 3 7 2 16 -1 19 -3 4 -6 -2 -5 -13z"/>
<path d="M1407 1309 c-10 -28 -31 -64 -47 -82 l-28 -32 -22 20 c-12 11 -30 36
-41 55 -10 19 -18 30 -19 24 -1 -24 60 -104 80 -104 22 0 71 69 91 127 18 54
5 47 -14 -8z"/>
<path d="M1441 1334 c0 -11 3 -14 6 -6 3 7 2 16 -1 19 -3 4 -6 -2 -5 -13z"/>
<path d="M1814 1336 c11 -9 24 -16 30 -16 12 0 7 5 -24 19 -24 11 -24 11 -6
-3z"/>
<path d="M1176 1327 c3 -10 9 -15 12 -12 3 3 0 11 -7 18 -10 9 -11 8 -5 -6z"/>
<path d="M1878 1333 c7 -3 16 -2 19 1 4 3 -2 6 -13 5 -11 0 -14 -3 -6 -6z"/>
<path d="M771 1322 c-1 -14 27 -72 35 -72 2 0 -2 12 -9 28 -8 15 -17 34 -20
42 -4 10 -6 11 -6 2z"/>
<path d="M1992 1314 c-7 -8 -8 -14 -3 -14 10 0 25 19 20 25 -2 1 -10 -3 -17
-11z"/>
<path d="M1221 1304 c0 -11 3 -14 6 -6 3 7 2 16 -1 19 -3 4 -6 -2 -5 -13z"/>
<path d="M756 1285 c7 -37 30 -75 46 -75 7 0 4 6 -5 13 -9 6 -24 30 -32 52
-12 30 -14 33 -9 10z"/>
<path d="M1898 1303 c7 -3 16 -2 19 1 4 3 -2 6 -13 5 -11 0 -14 -3 -6 -6z"/>
<path d="M1211 1264 c0 -11 3 -14 6 -6 3 7 2 16 -1 19 -3 4 -6 -2 -5 -13z"/>
<path d="M1236 1260 c11 -42 41 -94 68 -119 22 -21 28 -22 42 -10 21 17 74 99
74 113 0 6 -13 -12 -29 -39 -41 -72 -56 -83 -82 -60 -11 10 -33 46 -50 79 -16
34 -27 50 -23 36z"/>
<path d="M1441 1254 c0 -11 3 -14 6 -6 3 7 2 16 -1 19 -3 4 -6 -2 -5 -13z"/>
<path d="M838 1253 c7 -3 16 -2 19 1 4 3 -2 6 -13 5 -11 0 -14 -3 -6 -6z"/>
<path d="M1461 1244 c0 -11 3 -14 6 -6 3 7 2 16 -1 19 -3 4 -6 -2 -5 -13z"/>
<path d="M1155 1230 c3 -5 8 -10 11 -10 2 0 4 5 4 10 0 6 -5 10 -11 10 -5 0
-7 -4 -4 -10z"/>
<path d="M1201 1220 c0 -8 4 -24 9 -35 5 -13 9 -14 9 -5 0 8 -4 24 -9 35 -5
13 -9 14 -9 5z"/>
<path d="M1426 1215 c-9 -26 -7 -32 5 -12 6 10 9 21 6 23 -2 3 -7 -2 -11 -11z"/>
<path d="M1191 1174 c0 -11 3 -14 6 -6 3 7 2 16 -1 19 -3 4 -6 -2 -5 -13z"/>
<path d="M1245 1165 c9 -29 46 -81 68 -94 14 -10 22 -9 34 1 22 18 73 89 73
101 0 6 -13 -9 -28 -34 -45 -70 -58 -77 -88 -48 -14 13 -35 40 -46 59 -10 19
-16 26 -13 15z"/>
<path d="M1461 1164 c0 -11 3 -14 6 -6 3 7 2 16 -1 19 -3 4 -6 -2 -5 -13z"/>
<path d="M1226 1140 c16 -61 74 -140 104 -140 16 0 51 36 74 78 16 28 -3 9
-28 -28 -15 -23 -34 -40 -45 -40 -22 0 -63 51 -91 112 -11 24 -17 32 -14 18z"/>
<path d="M1426 1145 c-9 -26 -7 -32 5 -12 6 10 9 21 6 23 -2 3 -7 -2 -11 -11z"/>
<path d="M1201 1140 c0 -8 6 -28 14 -45 17 -39 18 -21 0 25 -7 19 -14 28 -14
20z"/>
<path d="M1426 1075 c-15 -35 -42 -81 -61 -102 l-33 -38 -22 20 c-13 11 -36
40 -52 64 -15 25 -28 40 -28 34 0 -13 51 -82 79 -107 21 -19 22 -19 55 13 31
30 104 167 94 176 -2 2 -16 -24 -32 -60z"/>
<path d="M1063 1081 c-7 -10 -9 -22 -6 -25 6 -6 32 23 33 37 0 14 -15 7 -27
-12z"/>
<path d="M1171 1084 c0 -11 3 -14 6 -6 3 7 2 16 -1 19 -3 4 -6 -2 -5 -13z"/>
<path d="M1461 1093 c-1 -6 -4 -20 -7 -30 -5 -17 -5 -17 6 0 6 10 9 23 6 30
-3 9 -5 9 -5 0z"/>
<path d="M1116 1077 c3 -10 9 -15 12 -12 3 3 0 11 -7 18 -10 9 -11 8 -5 -6z"/>
<path d="M1481 1074 c0 -11 3 -14 6 -6 3 7 2 16 -1 19 -3 4 -6 -2 -5 -13z"/>
<path d="M1501 1064 c0 -11 3 -14 6 -6 3 7 2 16 -1 19 -3 4 -6 -2 -5 -13z"/>
<path d="M1185 1035 c16 -85 107 -225 145 -225 32 0 115 118 134 190 4 14 -6
-2 -22 -35 -40 -82 -88 -145 -111 -145 -35 0 -91 82 -133 195 -10 27 -16 37
-13 20z"/>
<path d="M1067 1026 c-3 -8 0 -17 7 -19 10 -4 12 1 9 14 -6 23 -9 24 -16 5z"/>
<path d="M1210 1035 c0 -5 5 -17 10 -25 5 -8 10 -10 10 -5 0 6 -5 17 -10 25
-5 8 -10 11 -10 5z"/>
<path d="M1422 995 c-12 -25 -20 -45 -17 -45 7 0 47 81 43 86 -3 2 -14 -17
-26 -41z"/>
<path d="M1454 929 c-17 -43 -27 -76 -23 -74 10 6 63 144 58 149 -2 2 -18 -32
-35 -75z"/>
<path d="M1253 950 c48 -86 91 -97 132 -33 16 25 14 25 -19 -7 l-37 -35 -37
41 c-20 22 -43 49 -50 60 -7 10 -2 -1 11 -26z"/>
<path d="M1521 974 c0 -11 3 -14 6 -6 3 7 2 16 -1 19 -3 4 -6 -2 -5 -13z"/>
<path d="M1141 954 c0 -11 3 -14 6 -6 3 7 2 16 -1 19 -3 4 -6 -2 -5 -13z"/>
<path d="M1200 915 c0 -20 59 -111 94 -144 l36 -35 36 35 c20 18 40 43 46 54
6 11 -10 -2 -35 -30 l-46 -50 -35 35 c-19 19 -49 60 -65 90 -17 30 -31 51 -31
45z"/>
<path d="M1501 904 c0 -11 3 -14 6 -6 3 7 2 16 -1 19 -3 4 -6 -2 -5 -13z"/>
<path d="M1035 891 c-4 -13 -4 -25 -1 -28 3 -4 6 2 6 13 0 16 2 17 10 4 5 -8
10 -10 10 -5 0 6 -4 16 -9 24 -7 11 -10 9 -16 -8z"/>
<path d="M1186 880 c10 -39 50 -114 80 -149 39 -46 61 -56 88 -37 24 15 92
110 102 143 3 10 -8 -4 -25 -32 -16 -27 -45 -65 -64 -83 -34 -33 -35 -33 -60
-17 -29 18 -75 86 -106 155 -12 25 -18 34 -15 20z"/>
<path d="M1466 885 c-9 -26 -7 -32 5 -12 6 10 9 21 6 23 -2 3 -7 -2 -11 -11z"/>
<path d="M1637 881 c-4 -17 -3 -21 5 -13 5 5 8 16 6 23 -3 8 -7 3 -11 -10z"/>
<path d="M1472 828 c-12 -28 -20 -53 -18 -55 2 -2 13 19 25 48 12 28 21 53 19
55 -3 2 -14 -20 -26 -48z"/>
<path d="M1171 850 c0 -8 4 -22 9 -30 12 -18 12 -2 0 25 -6 13 -9 15 -9 5z"/>
<path d="M1131 824 c0 -11 3 -14 6 -6 3 7 2 16 -1 19 -3 4 -6 -2 -5 -13z"/>
<path d="M1030 815 c0 -8 4 -15 10 -15 5 0 7 7 4 15 -4 8 -8 15 -10 15 -2 0
-4 -7 -4 -15z"/>
<path d="M1190 797 c-2 -37 108 -177 140 -177 21 0 83 66 105 112 8 18 10 25
3 14 -45 -66 -91 -116 -107 -116 -23 0 -84 68 -116 130 -13 25 -24 41 -25 37z"/>
<path d="M1170 775 c0 -5 5 -17 10 -25 5 -8 10 -10 10 -5 0 6 -5 17 -10 25 -5
8 -10 11 -10 5z"/>
<path d="M1447 707 c-20 -40 -55 -90 -77 -112 l-40 -39 -41 39 c-22 22 -53 63
-69 90 -16 28 -30 45 -30 39 0 -20 80 -133 111 -155 l29 -20 27 20 c14 12 37
36 50 54 27 36 86 147 81 152 -2 2 -20 -29 -41 -68z"/>
<path d="M1155 745 c18 -85 134 -255 175 -255 22 0 93 81 128 147 17 33 32 65
32 69 0 5 -15 -18 -33 -51 -41 -76 -75 -121 -104 -141 -22 -14 -26 -13 -52 6
-38 26 -96 114 -127 192 -14 35 -22 50 -19 33z"/>
<path d="M1551 754 c0 -11 3 -14 6 -6 3 7 2 16 -1 19 -3 4 -6 -2 -5 -13z"/>
<path d="M1131 744 c0 -11 3 -14 6 -6 3 7 2 16 -1 19 -3 4 -6 -2 -5 -13z"/>
<path d="M1496 745 c-9 -26 -7 -32 5 -12 6 10 9 21 6 23 -2 3 -7 -2 -11 -11z"/>
<path d="M1111 734 c0 -11 3 -14 6 -6 3 7 2 16 -1 19 -3 4 -6 -2 -5 -13z"/>
<path d="M1521 743 c-1 -6 -4 -20 -7 -30 -5 -17 -5 -17 6 0 6 10 9 23 6 30 -3
9 -5 9 -5 0z"/>
<path d="M1042 720 c0 -14 2 -19 5 -12 2 6 2 18 0 25 -3 6 -5 1 -5 -13z"/>
<path d="M1621 714 c0 -11 3 -14 6 -6 3 7 2 16 -1 19 -3 4 -6 -2 -5 -13z"/>
<path d="M1081 694 c0 -11 3 -14 6 -6 3 7 2 16 -1 19 -3 4 -6 -2 -5 -13z"/>
<path d="M1121 704 c-1 -18 35 -116 64 -174 34 -67 76 -123 115 -150 28 -20
31 -20 55 -4 35 23 109 128 140 198 39 87 29 81 -15 -11 -36 -73 -129 -193
-150 -193 -5 0 -28 20 -52 44 -50 49 -99 135 -133 234 -13 37 -24 62 -24 56z"/>
<path d="M1496 675 c-9 -26 -7 -32 5 -12 6 10 9 21 6 23 -2 3 -7 -2 -11 -11z"/>
<path d="M1537 638 c-9 -29 -15 -54 -13 -56 2 -2 12 20 21 48 9 28 15 53 13
55 -2 3 -12 -19 -21 -47z"/>
<path d="M1111 654 c0 -11 3 -14 6 -6 3 7 2 16 -1 19 -3 4 -6 -2 -5 -13z"/>
<path d="M1161 655 c0 -5 6 -21 14 -35 8 -14 14 -20 14 -15 0 6 -6 21 -14 35
-8 14 -14 21 -14 15z"/>
<path d="M1456 584 c-36 -68 -102 -144 -126 -144 -20 0 -91 73 -114 119 -9 17
-19 31 -22 31 -2 0 3 -14 12 -32 23 -45 104 -128 124 -128 24 0 97 83 133 149
16 29 27 54 25 56 -2 2 -16 -21 -32 -51z"/>
<path d="M1581 624 c0 -11 3 -14 6 -6 3 7 2 16 -1 19 -3 4 -6 -2 -5 -13z"/>
<path d="M1601 614 c0 -11 3 -14 6 -6 3 7 2 16 -1 19 -3 4 -6 -2 -5 -13z"/>
<path d="M1061 604 c0 -11 3 -14 6 -6 3 7 2 16 -1 19 -3 4 -6 -2 -5 -13z"/>
<path d="M1081 604 c0 -11 3 -14 6 -6 3 7 2 16 -1 19 -3 4 -6 -2 -5 -13z"/>
<path d="M1566 574 c-4 -14 -5 -28 -3 -31 3 -2 8 8 11 23 4 14 5 28 3 31 -3 2
-8 -8 -11 -23z"/>
<path d="M1111 574 c0 -11 3 -14 6 -6 3 7 2 16 -1 19 -3 4 -6 -2 -5 -13z"/>
<path d="M1591 574 c0 -11 3 -14 6 -6 3 7 2 16 -1 19 -3 4 -6 -2 -5 -13z"/>
<path d="M1091 564 c0 -11 3 -14 6 -6 3 7 2 16 -1 19 -3 4 -6 -2 -5 -13z"/>
<path d="M230 566 c0 -2 8 -10 18 -17 15 -13 16 -12 3 4 -13 16 -21 21 -21 13z"/>
<path d="M1071 554 c0 -11 3 -14 6 -6 3 7 2 16 -1 19 -3 4 -6 -2 -5 -13z"/>
<path d="M1496 534 c-9 -20 -15 -39 -12 -41 3 -3 12 12 21 32 20 49 14 56 -9
9z"/>
<path d="M1488 451 c-48 -100 -127 -201 -157 -201 -26 0 -105 87 -145 160 -20
36 -36 61 -36 56 0 -4 14 -35 31 -67 37 -68 121 -159 149 -159 32 0 120 109
168 208 25 51 43 94 41 96 -2 2 -25 -40 -51 -93z"/>
<path d="M1150 536 c0 -4 16 -39 36 -77 35 -66 120 -159 145 -159 20 0 102 91
127 140 12 25 17 37 10 26 -94 -137 -123 -165 -157 -146 -31 16 -87 87 -125
158 -19 37 -36 63 -36 58z"/>
<path d="M1081 514 c0 -11 3 -14 6 -6 3 7 2 16 -1 19 -3 4 -6 -2 -5 -13z"/>
<path d="M1541 499 c-6 -18 -9 -34 -7 -36 2 -2 9 10 15 28 6 18 9 34 7 36 -2
2 -9 -10 -15 -28z"/>
<path d="M1130 515 c0 -5 5 -17 10 -25 5 -8 10 -10 10 -5 0 6 -5 17 -10 25 -5
8 -10 11 -10 5z"/>
<path d="M2314 498 l-19 -23 23 19 c21 18 27 26 19 26 -2 0 -12 -10 -23 -22z"/>
<path d="M1115 485 c15 -70 88 -199 146 -257 31 -32 63 -58 69 -58 24 0 117
110 158 187 23 44 42 84 42 89 0 5 -18 -23 -39 -63 -43 -82 -91 -147 -133
-181 l-28 -24 -39 31 c-51 41 -107 126 -149 226 -18 44 -31 67 -27 50z"/>
<path d="M310 465 c13 -14 26 -25 28 -25 3 0 -5 11 -18 25 -13 14 -26 25 -28
25 -3 0 5 -11 18 -25z"/>
<path d="M1561 483 c-1 -6 -4 -20 -7 -30 -5 -17 -5 -17 6 0 6 10 9 23 6 30 -3
9 -5 9 -5 0z"/>
<path d="M2215 388 l-80 -83 83 80 c76 74 87 85 79 85 -1 0 -38 -37 -82 -82z"/>
<path d="M1536 415 c-9 -26 -7 -32 5 -12 6 10 9 21 6 23 -2 3 -7 -2 -11 -11z"/>
<path d="M350 417 c0 -2 15 -16 33 -33 l32 -29 -29 33 c-28 30 -36 37 -36 29z"/>
<path d="M1120 396 c0 -5 16 -43 36 -84 37 -77 145 -202 174 -202 36 0 169
174 195 255 4 11 -13 -16 -37 -59 -45 -82 -133 -186 -158 -186 -30 0 -128 117
-169 201 -22 46 -40 80 -41 75z"/>
<path d="M460 315 c13 -14 26 -25 28 -25 3 0 -5 11 -18 25 -13 14 -26 25 -28
25 -3 0 5 -11 18 -25z"/>
<path d="M2099 283 c-13 -16 -12 -17 4 -4 16 13 21 21 13 21 -2 0 -10 -8 -17
-17z"/>
<path d="M500 286 c0 -2 8 -10 18 -17 15 -13 16 -12 3 4 -13 16 -21 21 -21 13z"/>
<path d="M707 149 c7 -7 15 -10 18 -7 3 3 -2 9 -12 12 -14 6 -15 5 -6 -5z"/>
<path d="M1438 13 c7 -3 16 -2 19 1 4 3 -2 6 -13 5 -11 0 -14 -3 -6 -6z"/>
</g>
</svg>
